<svg id="Layer_1" data-name="Layer 1" xmlns="http://www.w3.org/2000/svg" viewBox="0 0 1387.95 512"><defs><style>.cls-1{fill:#00a6e1;}.cls-2{fill:#6dbe4a;}</style></defs><title>cfp-logo</title><polygon class="cls-1" points="256 0 0 256 0 0 256 0"/><polygon class="cls-1" points="0 256 256 512 0 512 0 256"/><polygon class="cls-1" points="256 512 512 256 512 512 256 512"/><polygon class="cls-2" points="512 0 512 256 427 171 257 342 171 256 342 86 256 0 512 0"/><path class="cls-2" d="M707.82,175.77q-4.1,17.82-15.59,27.38-11.84,9.48-28,9.48-14.64-.36-24.42-7.39-10-6.77-14.47-15.64-1.37-2.9-2.46-5.54a36.64,36.64,0,0,1-1.71-6.85q-1.27-7.74-1.27-29.71,0-22.32,1.27-29.88a36.06,36.06,0,0,1,4.18-12.22q4.5-8.88,14.47-15.82,9.78-7,24.43-7.21,18,.18,29.29,11a48.81,48.81,0,0,1,14.3,26.94h-20a28.48,28.48,0,0,0-8.36-13.21,24.17,24.17,0,0,0-15.35-5.37,25.42,25.42,0,0,0-11.42,2.73,23.89,23.89,0,0,0-7.85,6.61A21.62,21.62,0,0,0,640,121.69q-1.37,6.87-1.36,25.81T640,173.13A21.69,21.69,0,0,0,644.9,184a22.06,22.06,0,0,0,7.84,6.43,21.58,21.58,0,0,0,11.43,2.91q15.87,0,23.72-17.53Z"/><path class="cls-2" d="M720,147.5q0-22.36,1.28-29.95a36.41,36.41,0,0,1,4.17-12.24q4.52-8.84,14.47-15.76,9.78-7,24.42-7.18,14.8.18,24.67,7.21t14.13,15.82a30.12,30.12,0,0,1,4.34,12.22q1.1,7.56,1.1,29.88,0,22-1.1,29.71t-4.34,12.39q-4.35,8.88-14.13,15.64-9.87,7-24.67,7.39-14.64-.36-24.42-7.39-10-6.77-14.47-15.64-1.36-2.9-2.47-5.54a36.71,36.71,0,0,1-1.7-6.85Q720,169.47,720,147.5Zm18.8,0q0,18.93,1.36,25.63A21.77,21.77,0,0,0,745,184a22.1,22.1,0,0,0,7.85,6.43,21.52,21.52,0,0,0,11.42,2.91A22.66,22.66,0,0,0,776,190.39a21,21,0,0,0,7.5-6.43,22.92,22.92,0,0,0,5-10.83q1.28-6.69,1.28-25.63t-1.28-25.81a22.8,22.8,0,0,0-5-10.65,22.66,22.66,0,0,0-7.5-6.61,26.83,26.83,0,0,0-11.69-2.73,25.42,25.42,0,0,0-11.42,2.73A23.89,23.89,0,0,0,745,111a21.62,21.62,0,0,0-4.86,10.65Q738.78,128.56,738.78,147.5Z"/><path class="cls-2" d="M834,83.43h43.43q25.2.18,37.81,21.62a39.47,39.47,0,0,1,5.7,15.12q.93,7.9.93,27.33,0,20.66-1.44,28.83a33.26,33.26,0,0,1-2,7.38,67.64,67.64,0,0,1-3.49,6.59,43.66,43.66,0,0,1-15.16,14.94q-9.62,6.33-23.58,6.33H834ZM852.77,193.3h22.5q15.86,0,23-11.19a21.77,21.77,0,0,0,4-10.48q.76-6.25.77-23.43,0-16.72-.77-23.95a22.51,22.51,0,0,0-4.85-11.72q-7.85-11.18-22.17-10.83h-22.5Z"/><path class="cls-2" d="M947.36,83.43h79.29V101.7h-60.5v36.67h51.64v17.21H966.15V193.3h60.5v18.27H947.36Z"/><path class="cls-2" d="M1090.62,83.43h79.29V101.7h-60.5v37.9h51.65v17.21h-51.65v54.76h-18.79Z"/><path class="cls-2" d="M1183.08,147.5q0-22.36,1.28-29.95a36,36,0,0,1,4.17-12.24q4.5-8.84,14.46-15.76,9.78-7,24.42-7.18,14.8.18,24.68,7.21t14.13,15.82a30.12,30.12,0,0,1,4.33,12.22q1.11,7.56,1.11,29.88,0,22-1.11,29.71a30.21,30.21,0,0,1-4.34,12.39q-4.34,8.88-14.12,15.64-9.87,7-24.68,7.39-14.64-.36-24.42-7.39-10-6.77-14.46-15.64c-.91-1.93-1.74-3.78-2.47-5.54a36.71,36.71,0,0,1-1.7-6.85Q1183.07,169.47,1183.08,147.5Zm18.79,0q0,18.93,1.37,25.63A21.6,21.6,0,0,0,1208.1,184a22.06,22.06,0,0,0,7.84,6.43,21.56,21.56,0,0,0,11.43,2.91,22.62,22.62,0,0,0,11.68-2.91,20.91,20.91,0,0,0,7.51-6.43,22.92,22.92,0,0,0,5-10.83q1.28-6.69,1.28-25.63t-1.28-25.81a22.8,22.8,0,0,0-5-10.65,22.6,22.6,0,0,0-7.51-6.61,26.78,26.78,0,0,0-11.68-2.73,25.46,25.46,0,0,0-11.43,2.73,23.85,23.85,0,0,0-7.84,6.61,21.45,21.45,0,0,0-4.86,10.65Q1201.88,128.56,1201.87,147.5Z"/><path class="cls-2" d="M1297.07,83.43h48.5q15.51,0,25.31,8.44,11.8,9.57,12.31,27.33-.35,26.1-24,35.51L1388,211.57h-22.33l-25.68-54.76h-24.07v54.76h-18.8Zm18.8,56.17h28.5q10.59-.18,15.88-6.35a20.2,20.2,0,0,0,5.2-14.1q-.17-10-6.23-14.54-4.77-4-13.82-4h-29.53Z"/><path class="cls-1" d="M624.1,299.43h45a70.35,70.35,0,0,1,14.14,1.4A37.65,37.65,0,0,1,697,308.39a30.65,30.65,0,0,1,9.52,12.3A40.82,40.82,0,0,1,710.39,339q0,14.25-9.72,25.93-10,12.3-29.15,12.65H642.89v50H624.1Zm18.79,59.86h27.89q10.5-.18,15.78-6.71a22.2,22.2,0,0,0,5-14.13,25.79,25.79,0,0,0-2.05-10.86,15.94,15.94,0,0,0-6-6.27,23,23,0,0,0-13.48-3.62H642.89Z"/><path class="cls-1" d="M781,398.91H734l-9.53,28.66H704.52l45.11-128.14h15.75L810.5,427.57H790.66Zm-5.36-17.21-18-56.06h-.34l-18,56.06Z"/><path class="cls-1" d="M827.21,299.43H846v66h.38l51.1-66h22.31L880,350,924,427.57H901.64l-33.82-62.66L846,388.55v39H827.21Z"/><path class="cls-1" d="M940.59,299.43h18.79V427.57H940.59Z"/><path class="cls-1" d="M988.53,396.53q14.84,12.6,35.28,12.77,24.2-.35,24.53-17.86.18-14.34-16.17-17.24-7.5-1.05-16.44-2.37-16-2.73-24.35-12.23-8.61-9.77-8.6-23.75,0-16.8,10.8-27.1,10.45-10.2,29.68-10.38,23.15.53,40.24,13.24l-10.48,16a55.59,55.59,0,0,0-30.75-9.87q-8.68,0-14.48,4.49-6,4.67-6.22,13.9a14.37,14.37,0,0,0,4.17,10q4.17,4.58,13.37,6.34,5.11.87,14,2,17.45,2.46,25.8,12.93a37.15,37.15,0,0,1,8.26,23.93q-.95,36.76-43.56,37.3-27.55,0-47.38-17.49Z"/><path class="cls-1" d="M1111.36,316.65h-34V299.43h86.86v17.22h-34V427.57h-18.79Z"/><path class="cls-1" d="M1230.52,398.91h-47.08l-9.53,28.66H1154l45.12-128.14h15.74L1260,427.57h-19.84Zm-5.37-17.21-18-56.06h-.34l-18,56.06Z"/><path class="cls-1" d="M1276.68,299.43h17.72l56.21,91.1h.34v-91.1h18.79V427.57h-17.8l-56.12-91.1h-.34v91.1h-18.8Z"/></svg>