<?xml version="1.0" encoding="utf-8"?>
<!-- Generator: Adobe Illustrator 22.1.0, SVG Export Plug-In . SVG Version: 6.00 Build 0)  -->
<svg version="1.1" id="Layer_1" focusable="false" xmlns="http://www.w3.org/2000/svg" xmlns:xlink="http://www.w3.org/1999/xlink"
	 x="0px" y="0px" viewBox="0 0 512 512" style="enable-background:new 0 0 512 512;" xml:space="preserve">
<style type="text/css">
	.st0{fill:#999999;}
	.st1{fill:#FFFFFF;}
	.st2{fill:#C1272D;stroke:#FFFFFF;stroke-width:4;stroke-miterlimit:10;}
</style>
<g>
	<path class="st0" d="M256,510c-14.6,0-26.5-11.9-26.5-26.5V462c0-36.9-30.1-59-59.3-59c-15.4,0-30,6.2-41.2,17.4l-15.2,15.3
		c-4.8,4.5-11.2,6.9-17.9,6.9c-6.7,0-13-2.5-17.9-7c-10.7-9.9-11.4-26.6-1.5-37.4L91.6,383c17.2-17.2,22.1-41.8,12.8-64.2
		c-9.3-22.4-30.1-36.4-54.4-36.4H28.5H28h-0.5C12.9,282.1,1.3,270,1.6,255.5c0.3-14.3,12.1-26,26.4-26h0.5h21.6
		c24.3,0,45.1-13.9,54.4-36.4c9.3-22.4,4.4-47-12.8-64.2l-15.3-15.3c-9.4-10.1-9.4-25.9,0.1-36c5-5.3,12-8.4,19.4-8.4
		c6.7,0,13.1,2.5,18,7.1L129,91.6c11.2,11.2,25.8,17.4,41.2,17.4c29.1,0,59.3-22.1,59.3-59V28.4C229.6,13.9,241.4,2,256,2
		s26.5,11.9,26.5,26.4V50c0,16.6,6.5,31.8,18.3,42.8c11,10.3,25.9,16.2,41,16.2l0,0c15.4,0,30-6.2,41.2-17.4l15.2-15.2
		c4.9-4.5,11.3-7,18-7s13.1,2.5,18,7.1c10.7,9.9,11.3,26.7,1.3,37.4L420.4,129c-17.2,17.2-22.1,41.7-12.8,64.2
		c9.3,22.4,30.1,36.4,54.4,36.4h21.5h0.5h0.5c7.1,0.1,13.7,3,18.6,8.1s7.5,11.8,7.4,18.8c-0.3,14.3-12.1,26-26.4,26h-0.5H462
		c-24.3,0-45.1,13.9-54.4,36.4c-9.3,22.4-4.4,47,12.8,64.2l15.3,15.2c9.2,10,9.2,25.7-0.1,35.8c-5,5.4-12.1,8.5-19.5,8.5
		c-6.7,0-13-2.5-17.9-7L383,420.4c-11.2-11.2-25.8-17.4-41.2-17.4c-29.1,0-59.3,22.1-59.3,59v21.5C282.5,498.1,270.6,510,256,510z
		 M304,278c-14.3,0-26,11.7-26,26s11.7,26,26,26s26-11.7,26-26S318.3,278,304,278z M224,174c-27.6,0-50,22.4-50,50s22.4,50,50,50
		s50-22.4,50-50S251.6,174,224,174z"/>
	<path class="st1" d="M256,4c13.5,0,24.4,11,24.4,24.4V50c0,38.2,31.2,61,61.3,61c15.9,0,31.1-6.4,42.6-17.9l15.2-15.2
		c4.5-4.2,10.4-6.5,16.6-6.5s12.1,2.3,16.7,6.6c9.8,9.2,10.4,24.6,1.3,34.5l-15.2,15.2c-17.7,17.7-22.8,43.2-13.2,66.3
		c9.6,23.2,31.2,37.6,56.3,37.6h21.5v-3l0.1,3c0.2,0,0.3,0,0.5,0s0.3,0,0.5,0c13.5,0.3,24.2,11.4,24,24.9c-0.2,13.2-11.2,24-24.4,24
		c-0.2,0-0.3,0-0.5,0l0,0l0,0H462c-25.1,0-46.7,14.4-56.3,37.6c-9.6,23.2-4.5,48.6,13.2,66.4l15.2,15.2c4.1,4.5,6.4,10.4,6.4,16.5
		c0,6.2-2.3,12-6.5,16.6c-4.6,5-11.2,7.9-18,7.9c-6.1,0-12-2.3-16.5-6.4l-15.2-15.2c-11.6-11.6-26.7-17.9-42.6-17.9
		c-30.1,0-61.3,22.8-61.3,61v21.5c0,13.5-11,24.5-24.4,24.5c-13.5,0-24.5-11-24.5-24.5V462c0-38.2-31.2-61-61.3-61
		c-15.9,0-31.1,6.4-42.6,17.9l-15.2,15.2c-4.5,4.1-10.4,6.4-16.5,6.4c-6.2,0-12-2.3-16.6-6.5c-9.9-9.1-10.6-24.6-1.5-34.5L93,384.3
		c17.7-17.7,22.8-43.2,13.2-66.4c-9.6-23.2-31.2-37.6-56.3-37.6H28.5l0,0l0,0c-0.2,0-0.3,0-0.5,0s-0.3,0-0.5,0
		C14,280.2,3.2,269,3.5,255.5c0.2-13.2,11.2-24,24.4-24c0.2,0,0.3,0,0.5,0l0,0l0,0H50c25.1,0,46.7-14.4,56.3-37.6
		s4.5-48.6-13.2-66.3l-15.2-15.2c-8.7-9.3-8.6-23.9,0.1-33.3c4.7-5,11-7.8,17.9-7.8c6.2,0,12.1,2.3,16.6,6.5L127.7,93
		c11.6,11.6,26.7,17.9,42.6,17.9c30.1,0,61.3-22.8,61.3-61V28.4C231.6,15,242.5,4,256,4L256,4 M224,276c28.7,0,52-23.3,52-52
		s-23.3-52-52-52s-52,23.3-52,52S195.3,276,224,276 M304,332c15.4,0,28-12.6,28-28s-12.6-28-28-28s-28,12.6-28,28S288.6,332,304,332
		 M256,0L256,0c-15.7,0-28.4,12.7-28.5,28.4V50c0,34.3-28.1,57-57.3,57c-14,0-28.2-5.2-39.8-16.8L115.2,75
		c-5.5-5.1-12.4-7.6-19.4-7.6c-7.6,0-15.2,3-20.8,9.1c-10.2,10.9-10.2,27.8,0,38.8l15.3,15.3c35.8,35.8,10.4,97.1-40.2,97.1H28.5
		c-0.2,0-0.4,0-0.5,0c-15.5,0-28.1,12.4-28.4,27.9c-0.3,15.7,12.2,28.7,27.9,29c0.2,0,0.4,0,0.5,0c0.2,0,0.4,0,0.5,0H50
		c50.7,0,76.1,61.3,40.2,97.1L75,396.8c-10.6,11.6-9.9,29.6,1.7,40.2c5.4,5,12.4,7.5,19.3,7.5s13.8-2.5,19.3-7.5l15.2-15.3
		c11.6-11.6,25.8-16.8,39.8-16.8c29.2,0,57.3,22.7,57.3,57v21.5c0,15.7,12.7,28.5,28.5,28.5c15.7,0,28.4-12.7,28.4-28.5V462
		c0-34.3,28.1-57,57.3-57c14,0,28.2,5.2,39.8,16.8l15.2,15.2c5.5,5,12.4,7.5,19.3,7.5c7.7,0,15.3-3.1,20.9-9.2
		c10-10.9,10-27.6,0-38.5l-15.3-15.2c-35.8-35.8-10.5-97.1,40.2-97.1h21.5c0.2,0,0.4,0,0.5,0c15.5,0,28.1-12.4,28.4-27.9
		c0.3-15.7-12.2-28.7-27.9-29c-0.2,0-0.4,0-0.5,0c-0.2,0-0.4,0-0.5,0l0,0H462c-50.7,0-76.1-61.3-40.2-97.1l15.2-15.3
		c10.7-11.5,10.1-29.5-1.4-40.2c-5.5-5.1-12.4-7.6-19.4-7.6s-13.9,2.5-19.4,7.6l-15.2,15.2C370,101.8,355.7,107,341.7,107
		c-29.2,0-57.3-22.7-57.3-57V28.4C284.4,12.7,271.7,0,256,0L256,0z M224,272c-26.5,0-48-21.5-48-48s21.5-48,48-48s48,21.5,48,48
		S250.5,272,224,272L224,272z M304,328c-13.3,0-24-10.7-24-24s10.7-24,24-24s24,10.7,24,24S317.3,328,304,328L304,328z"/>
</g>
<path class="st2" d="M272,224c0,26.5-21.5,48-48,48s-48-21.5-48-48s21.5-48,48-48S272,197.5,272,224z"/>
</svg>
